<?xml version="1.0" encoding="UTF-8"?>
<svg width="800" height="600" viewBox="0 0 800 600" fill="none" xmlns="http://www.w3.org/2000/svg">
  <!-- Background Elements -->
  <rect width="800" height="600" fill="#F8FAFC"/>
  
  <!-- Decorative Circles -->
  <circle cx="400" cy="300" r="200" fill="#E3F2FD" opacity="0.5"/>
  <circle cx="400" cy="300" r="150" fill="#BBDEFB" opacity="0.5"/>
  <circle cx="400" cy="300" r="100" fill="#90CAF9" opacity="0.5"/>
  
  <!-- Code Elements -->
  <g transform="translate(250,200)">
    <!-- Code Window -->
    <rect x="0" y="0" width="300" height="200" rx="10" fill="#1976D2"/>
    <rect x="0" y="0" width="300" height="30" rx="10" fill="#1565C0"/>
    
    <!-- Window Controls -->
    <circle cx="20" cy="15" r="5" fill="#FF5F56"/>
    <circle cx="40" cy="15" r="5" fill="#FFBD2E"/>
    <circle cx="60" cy="15" r="5" fill="#27C93F"/>
    
    <!-- Code Lines -->
    <rect x="20" y="50" width="200" height="10" rx="5" fill="#90CAF9"/>
    <rect x="20" y="70" width="150" height="10" rx="5" fill="#90CAF9"/>
    <rect x="20" y="90" width="180" height="10" rx="5" fill="#90CAF9"/>
    <rect x="20" y="110" width="120" height="10" rx="5" fill="#90CAF9"/>
    <rect x="20" y="130" width="160" height="10" rx="5" fill="#90CAF9"/>
  </g>
  
  <!-- Connected Nodes -->
  <g transform="translate(100,100)">
    <circle cx="0" cy="0" r="10" fill="#1976D2"/>
    <circle cx="100" cy="50" r="10" fill="#1976D2"/>
    <circle cx="200" cy="0" r="10" fill="#1976D2"/>
    <line x1="10" y1="0" x2="90" y2="50" stroke="#1976D2" stroke-width="2"/>
    <line x1="110" y1="50" x2="190" y2="0" stroke="#1976D2" stroke-width="2"/>
  </g>
</svg>
