<?xml version="1.0" encoding="UTF-8"?>
<svg width="800" height="600" viewBox="0 0 800 600" fill="none" xmlns="http://www.w3.org/2000/svg">
  <path d="M400 100C200 100 50 250 50 450C50 550 150 580 250 500C350 420 450 480 550 400C650 320 750 280 750 200C750 120 600 100 400 100Z" fill="rgba(255,255,255,0.1)"/>
  <path d="M400 150C250 150 150 300 150 450C150 525 225 547.5 300 487.5C375 427.5 450 472.5 525 412.5C600 352.5 675 322.5 675 262.5C675 202.5 550 150 400 150Z" fill="rgba(255,255,255,0.15)"/>
  <path d="M400 200C300 200 250 350 250 450C250 500 300 515 350 475C400 435 450 465 500 425C550 385 600 365 600 325C600 285 500 200 400 200Z" fill="rgba(255,255,255,0.2)"/>
</svg>
